<svg width="1196" height="86" viewBox="0 0 1196 86" fill="none" xmlns="http://www.w3.org/2000/svg">
    <g opacity="0.5">
        <mask id="mask0_847_86522" style="mask-type:alpha" maskUnits="userSpaceOnUse" x="0" y="0" width="1196" height="86">
            <rect width="1196" height="86" rx="8" fill="#EAEDFD"/>
        </mask>
        <g mask="url(#mask0_847_86522)">
            <g opacity="0.5">
                <path d="M159.761 -60.7452C227.658 -87.3397 294.599 -120.336 367.11 -130.484C431.778 -139.559 502.095 -126.532 548.995 -79.064C571.516 -56.2725 584.56 -27.2454 588.554 4.90329C592.659 38.0382 588.805 71.6692 589.274 105.01C589.745 137.054 595.211 168.123 611.012 195.902C626.522 223.198 649.905 245.9 677.883 259.786C704.733 273.147 735.412 278.08 765.46 274.816C798.295 271.238 828.009 257.404 854.187 236.85C883.698 213.711 908.37 184.628 939.253 163.235C967.233 143.851 1001.19 130.117 1034.8 138.517C1064.5 145.943 1088.16 166.878 1113.4 182.967C1136.21 197.512 1161.36 206.844 1188.47 209.64C1197.92 210.615 1207.49 210.836 1217.04 210.369L1220.34 207.703C1219.22 207.778 1218.15 207.845 1217.04 207.921C1189.85 209.327 1162.41 204.813 1137.74 193.635C1110.28 181.209 1087.93 160.207 1061.31 146.315C1034.92 132.546 1006.41 129.907 977.769 140.161C947.03 151.176 921.568 172.578 897.799 194.696C870.852 219.736 844.127 246.571 809.875 260.94C779.472 273.707 745.274 276.725 713.553 269.758C647.812 255.336 600.303 197.946 593.101 130.826C586.431 68.4471 605.54 0.740397 570.765 -55.3741C539.927 -105.127 480.792 -131.395 423.884 -135.333C355.451 -140.059 288 -115.535 224.909 -89.891C157.917 -62.6504 90.1896 -31.3744 17.712 -25.8649C-8.95873 -23.8302 -36.5916 -26.0481 -62.7167 -33.098L-65.0615 -31.1987C-57.3301 -28.9816 -49.4922 -27.1967 -41.622 -25.8628C26.5422 -14.174 95.962 -35.7384 159.701 -60.6959L159.761 -60.7452Z" fill="#B8C2FA"/>
                <path d="M155.193 -49.2904C220.38 -76.7593 284.554 -109.517 354.691 -120.616C414.974 -130.149 479.062 -121.135 527.397 -82.7948C550.626 -64.3516 568.176 -39.4188 575.96 -10.2962C584.779 22.743 582.033 57.5949 581.723 91.6093C581.451 122.847 583.564 154.128 596.222 182.728C607.918 209.169 626.87 232.24 650.49 248.518C700.794 283.181 769.571 281.139 821.634 247.835C878.497 211.452 918.078 142.995 989.067 132.892C1022.75 128.092 1051.78 143.05 1079.15 160.341C1104.71 176.497 1129.59 191.851 1159.88 197.475C1184.83 202.112 1210.78 201.145 1235.73 195.245L1240.23 191.594C1223.53 196.029 1206.27 198.214 1189.03 197.909C1157.01 197.382 1127.91 187.547 1100.9 171.1C1076.39 156.194 1052.68 138.056 1024.08 131.729C995.921 125.514 967.078 133.01 941.816 146.933C911.895 163.404 888.026 188.171 863.108 211.313C836.134 236.394 807.124 258.177 771.092 266.847C740.712 274.143 708.334 272.826 679.555 261.34C651.182 250.029 626.929 229.21 610.285 203.539C592.905 176.739 585.628 146.118 584.409 114.03C583.182 81.8201 586.589 49.3732 583.342 17.2675C580.421 -11.8248 570.797 -38.9855 552.554 -61.5073C518.716 -103.267 463.549 -124.511 410.647 -126.646C345.19 -129.262 281.492 -106.461 221.54 -80.7847C156.664 -52.996 91.8094 -20.3858 21.4155 -11.6948C-11.6472 -7.58604 -46.6148 -9.96434 -78.4945 -20.3372L-80.6445 -18.6064C-68.1522 -14.3308 -55.2191 -11.2733 -42.2288 -9.41762C25.2897 0.288772 93.007 -23.0889 155.207 -49.3112L155.193 -49.2904Z" fill="#B8C2FA"/>
                <path d="M151.561 -38.1379C215.295 -67.0512 278.154 -100.397 347.557 -111.559C407.361 -121.197 471.349 -112.249 519.392 -74.3038C542.824 -55.8179 560.368 -30.7416 568.045 -1.36409C576.669 31.755 573.829 66.6637 574.124 100.718C574.37 131.376 577.672 161.748 591.135 189.278C603.582 214.732 622.929 236.702 646.781 251.597C698.532 283.926 766.207 275.8 815.839 240.209C870.054 201.341 910.229 135.57 981.449 128.36C1014.99 124.976 1044.15 139.747 1072.01 156.002C1096.99 170.569 1121.55 184.007 1150.61 188.509C1193.33 195.123 1238.29 185.026 1276.04 162.571L1308.81 136.064L1308.22 135.328C1273.76 167.49 1227.92 186.816 1181.25 187.986C1150.24 188.771 1121.35 180.752 1094.46 166.069C1069.08 152.214 1044.88 134.879 1016.25 128.184C987.961 121.556 958.696 127.658 932.732 140.977C903.224 156.095 879.634 179.539 855.833 202.373C830.118 227.062 803.247 250.293 769.121 261.528C739.584 271.259 707.113 272.713 677.742 263.35C648.99 254.182 624.007 234.718 606.458 210.228C587.705 184.043 579.001 153.408 577.094 121.051C575.236 89.2866 578.387 57.2347 575.176 25.5647C572.166 -3.96873 562.426 -31.5289 543.623 -54.2075C509.613 -95.1654 455.013 -115.687 402.604 -117.649C337.605 -120.085 274.648 -97.2751 215.635 -70.5175C152.157 -41.7334 89.1249 -7.5857 19.8954 3.12955C-14.4837 8.47796 -51.3623 6.65828 -84.6514 -4.33466L-82.1568 -1.1223C-69.7665 2.8216 -56.9824 5.57587 -44.1412 7.12834C23.4604 15.3254 90.2686 -10.2943 151.568 -38.104L151.561 -38.1379Z" fill="#B8C2FA"/>
                <path d="M1297.3 121.329C1264.48 153.559 1220.95 174.384 1175.42 177.974C1144.81 180.372 1115.46 174.179 1088.18 160.951C1061.95 148.229 1037.18 131.734 1008.48 124.699C980.926 117.958 952.208 122.144 926.172 133.971C896.282 147.543 872.339 170.02 849.043 192.917C823.162 218.353 797.025 243.742 762.905 257.105C734.188 268.37 701.817 271.807 672.294 263.791C643.648 256.019 618.661 237.496 600.825 213.941C582.056 189.161 572.567 159.699 570.01 128.483C567.447 97.2335 570.27 65.6466 567.154 34.4517C564.287 5.71954 555.277 -21.2789 537.371 -43.6999C504.437 -84.9026 450.544 -105.762 398.751 -108.503C335.01 -111.864 272.965 -90.0243 215.449 -62.8262C152.035 -32.85 89.988 4.17893 20.7464 17.6295C-7.78628 23.1749 -38.2394 23.816 -67.0744 18.1629L-64.7962 21.0873C-57.7475 22.4482 -50.6192 23.4185 -43.4919 24.034C24.2239 29.8274 89.8656 1.47425 150.143 -28.0018C212.633 -58.5486 274.561 -92.4099 343.683 -103.047C402.856 -112.151 466.421 -102.327 513.408 -64.212C536.247 -45.6979 552.996 -20.8135 560.26 8.1786C568.337 40.4995 565.79 74.419 566.554 107.568C567.256 137.52 571.289 166.98 585.053 193.555C597.631 217.826 616.671 238.711 640.028 252.636C692.383 283.853 758.994 271.408 806.905 234.612C835.477 212.662 858.561 184.348 886.525 161.649C912.117 140.892 943.293 125.235 976.189 123.879C1008.67 122.547 1037.26 136.861 1064.96 151.661C1090.81 165.463 1116.49 177.564 1146.23 180.262C1201.52 185.277 1258.63 162.802 1298.89 123.363L1297.3 121.329Z" fill="#B8C2FA"/>
                <path d="M1286.36 107.33C1255.58 139.169 1215.03 161.073 1171.41 167.44C1140.52 171.959 1110.05 167.601 1081.68 155.526C1054.37 143.901 1028.76 128.04 999.621 120.894C972.372 114.206 943.885 117.097 917.665 127.919C887.543 140.338 863.389 162.117 840.45 185.04C815.39 210.095 790.871 236.18 758.515 251.484C730.463 264.745 697.998 270.599 667.854 264.214C639.274 258.166 614.007 240.789 595.757 218.233C576.641 194.614 566.218 166.021 562.97 135.566C559.59 104.022 562.298 72.0361 558.817 40.5159C555.682 12.111 546.445 -14.4453 528.472 -36.4077C494.899 -77.465 440.368 -97.647 388.254 -99.712C325.377 -102.187 264.64 -80.0591 208.521 -51.9541C146.84 -21.059 86.9049 17.1934 19.2788 32.6366C-3.65142 37.8667 -27.9313 39.8903 -51.7113 37.8434L-49.5548 40.6003C-47.7831 40.7476 -46.0182 40.861 -44.2736 40.9613C22.3785 44.6188 85.8342 14.9349 144.263 -15.5937C205.019 -47.3254 265.22 -81.9831 333.215 -93.5C392.398 -103.511 456.292 -94.4177 503.903 -56.9596C526.713 -39.0244 543.837 -14.7222 551.478 13.7764C560.14 46.0352 557.782 80.1068 559.018 113.326C560.123 143.097 564.869 172.165 579.312 198.177C592.603 222.144 612.396 242.575 636.538 255.328C689.563 283.322 753.862 265.601 799.07 227.964C826.286 205.311 848.691 177.293 876.434 155.248C902.383 134.604 934.102 120.244 967.101 119.663C999.992 119.071 1029.26 133.266 1057.94 147.223C1083.42 159.602 1108.94 169.982 1137.73 171.475C1193.09 174.347 1248.86 149.675 1287.93 109.351L1286.34 107.317L1286.36 107.33Z" fill="#B8C2FA"/>
                <path d="M1275.49 93.37C1245.78 125.762 1206.62 149.037 1163.59 157.292C1132.99 163.148 1102.41 160.198 1073.62 149.408C1045.16 138.753 1018.46 123.478 988.6 116.602C961.973 110.465 934.103 112.488 908.196 122.334C878.32 133.703 854.244 154.471 831.863 177.107C807.187 202.057 783.856 228.972 752.831 245.997C726.305 260.543 695.019 268.578 665.212 264.565C604.513 256.396 563.474 200.197 555.926 141.584C551.86 110.126 554.338 78.0495 550.494 46.5587C547.091 18.6583 537.687 -7.32787 519.85 -28.7889C486.225 -69.2311 431.897 -89.0157 380.202 -90.8386C319.522 -92.9791 260.944 -71.8386 207.154 -43.7842C145.82 -11.779 87.2596 28.9289 20.1266 47.17C1.42551 52.255 -18.272 55.1888 -37.9234 55.4683L-35.8886 58.0576C28.4319 56.6914 88.3665 25.164 143.999 -6.05953C202.683 -38.9884 261.309 -73.6073 328.065 -84.8072C385.889 -94.4913 448.16 -85.2422 494.965 -49.2511C518.159 -31.4209 535.519 -7.08348 543.308 21.6297C551.996 53.5809 549.793 87.3691 551.634 120.273C553.256 149.466 558.835 177.688 573.712 202.802C587.587 226.175 607.85 245.79 632.399 257.332C687.006 283.05 750.02 258.861 793.075 219.531C818.706 196.085 840.566 168.422 868.353 147.378C894.338 127.702 925.781 115.374 958.088 115.464C989.991 115.558 1018.99 128.573 1047.44 141.145C1074.44 153.071 1101.36 162.816 1131.43 162.811C1186.13 162.78 1239.65 136.117 1277.07 95.4251L1275.48 93.3908L1275.49 93.37Z" fill="#B8C2FA"/>
                <path d="M1264.61 79.4654C1236.41 111.889 1199.35 136.264 1157.7 146.655C1127.61 154.169 1096.76 153.196 1067.53 143.979C1038.95 134.95 1012.17 121.021 982.99 113.637C956.57 106.956 928.783 107.116 902.393 115.527C872.916 124.943 848.638 143.751 826.781 165.576C802.157 190.177 780.203 218.164 751.044 237.549C725.952 254.237 695.94 265.104 665.995 264.423C605.169 263.044 559.84 209.576 549.663 152.146C544.129 120.915 546.284 88.8063 542.675 57.3506C539.412 28.7442 530.322 1.95923 512.066 -20.0985C478.893 -60.129 425.232 -79.9232 374.122 -81.9856C313.239 -84.4348 254.635 -62.7208 201.348 -33.3965C141.922 -0.653977 85.8764 40.9196 20.9058 61.5969C5.98858 66.3363 -9.65313 69.7499 -25.4615 71.4625L-23.5415 73.9183C35.3748 67.0378 89.6392 35.6638 140.317 5.26479C197.778 -29.1958 255.465 -64.7191 321.972 -76.0221C379.58 -85.8167 442.108 -76.0761 488.389 -39.7174C511.449 -21.5906 528.331 2.90853 535.73 31.7814C543.893 63.6568 541.81 97.1693 544.485 129.848C546.888 158.987 554.176 186.697 570.472 210.815C585.211 232.625 605.933 250.414 630.496 259.93C656.165 269.869 684.797 268.312 711.01 259.727C741.005 249.91 766.26 231.323 788.587 208.947C813.634 183.824 836.172 155.067 866.057 135.533C891.607 118.849 921.484 110.017 951.552 111.308C983.715 112.692 1013.14 125.928 1042.5 137.462C1069.82 148.213 1097.25 155.783 1127.11 153.84C1180.39 150.352 1230.74 122.014 1266.21 81.445L1264.62 79.4108L1264.61 79.4654Z" fill="#B8C2FA"/>
                <path d="M1253.79 65.566C1226.6 98.5579 1190.85 124.197 1149.9 136.398C1120.12 145.262 1089.17 145.731 1059.53 137.813C1029.83 129.889 1001.92 116.52 972 109.304C945.5 102.925 917.556 102.57 891.044 110.637C861.929 119.491 837.96 137.733 816.546 159.315C792.97 183.092 772.448 210.327 745.663 230.664C721.049 249.372 690.828 262.611 660.079 263.444C600.05 265.059 553.972 213.288 542.795 157.185C536.595 126.141 538.399 94.0407 534.367 62.6637C530.783 34.8223 521.479 8.81324 503.461 -12.5001C469.953 -52.1881 416.064 -71.7175 364.908 -73.2196C304.882 -74.9942 247.593 -52.9579 195.702 -22.8155C137.102 11.2299 82.5499 54.7173 18.2922 77.3618C7.85723 81.0291 -2.9568 84.0373 -13.9685 86.2387L-12.1703 88.527C42.3953 77.0817 92.0455 45.4258 138.892 15.4008C194.37 -20.1704 250.521 -55.8059 315.916 -67.1224C373.08 -77.0289 435.111 -66.8736 480.92 -30.7624C504.115 -12.489 520.722 12.3035 527.967 41.3711C535.703 72.5273 533.96 105.199 537.307 137.016C540.321 165.519 548.583 192.386 565.306 215.484C580.731 236.766 602.522 254.01 627.76 261.723C652.378 269.24 679.066 266.065 703.217 257.027C733.491 245.709 758.255 225.3 780.357 201.804C804.211 176.438 826.44 148.07 856.132 129.326C882.094 112.938 912.358 105.331 942.502 107.262C974.378 109.314 1003.91 121.852 1033.58 132.266C1060.98 141.883 1088.45 148.183 1117.9 145.234C1171.37 139.893 1220.81 109.313 1255.36 67.6758L1253.75 65.6283L1253.79 65.566Z" fill="#B8C2FA"/>
                <path d="M1242.96 51.7209C1217.16 84.7331 1183.38 111.237 1143.97 125.467C1114.4 136.126 1082.87 138.451 1052.54 131.948C1022.45 125.48 994.073 113.193 964.256 105.811C937.998 99.3242 910.273 97.695 883.61 104.572C854.907 111.984 830.792 128.715 809.693 149.587C786.304 172.718 766.859 199.797 742.119 221.55C719.307 241.605 691.396 257.052 661.466 261.424C601.383 270.202 551.162 222.673 536.976 166.829C529.173 136.043 530.499 103.75 526.494 72.3309C522.922 44.2027 513.846 17.8402 495.693 -3.79718C462.582 -43.2563 408.854 -62.9465 358.103 -64.4517C298.346 -66.1988 241.584 -43.7321 190.639 -12.5626C133.866 22.1675 81.855 66.3903 19.9621 91.6024C12.3675 94.695 4.543 97.4318 -3.43771 99.7427L-1.73413 101.911C48.221 86.8822 93.3595 55.4533 136.329 26.0968C190.435 -10.8662 245.729 -47.2649 310.808 -58.4918C367.264 -68.2376 428.556 -57.648 473.59 -21.8042C497.035 -3.16182 513.435 22.0859 520.385 51.6996C527.649 82.6969 526.128 115.07 530.585 146.546C538.062 199.568 572.311 252.715 627.272 263.324C651.874 268.058 677.491 262.626 700.298 252.065C730.321 238.196 753.772 215.281 775.527 190.587C797.543 165.621 819.42 138.735 848.39 121.734C874.651 106.307 904.826 100.53 934.541 103.215C966.547 106.089 996.446 118.421 1026.8 127.685C1054.55 136.141 1082.48 140.739 1111.68 136.248C1164.27 128.146 1211.5 95.8331 1244.56 53.8231L1242.95 51.7757L1242.96 51.7209Z" fill="#B8C2FA"/>
                <path d="M1232.19 37.8818C1207.67 70.9919 1175.73 98.3035 1137.75 114.408C1109.21 126.501 1078.08 130.862 1047.82 126.315C1016.21 121.576 986.307 109.654 955.418 102.019C929.659 95.6488 902.645 93.0951 876.22 98.6227C847.184 104.726 822.406 120.703 801.152 141.504C777.46 164.704 758.455 192.304 734.54 215.271C713.089 235.886 687.028 252.562 658.074 259.073C629.759 265.438 601.953 259.392 578.736 242.667C555.951 226.252 539.155 201.485 531 174.363C522.158 144.966 522.611 113.67 518.858 83.3295C515.318 54.5731 506.698 27.5036 488.26 5.23897C455.479 -34.3305 401.676 -54.394 351.026 -55.7448C292.233 -57.3384 236.629 -34.8866 187.107 -3.20657C131.178 32.5735 80.9844 78.5658 20.3649 106.256C15.7578 108.368 11.0358 110.347 6.26617 112.176L7.90217 114.271C52.3748 96.8332 92.5271 66.8572 130.981 38.8464C184.012 0.211672 238.526 -37.6957 303.644 -49.5169C360.274 -59.7989 421.998 -48.8108 466.872 -12.3629C490.325 6.66814 506.14 32.244 512.815 62.1509C519.749 93.17 518.416 125.518 524.247 156.735C533.621 206.948 569.813 256.637 622.836 263.481C647.751 266.707 673.248 259.368 695.397 247.377C724.143 231.794 746.122 207.865 767.088 183.013C788.652 157.458 810.952 130.316 840.672 114.244C867.253 99.8803 897.218 95.8547 926.538 99.1974C958.236 102.816 988.146 114.594 1018.73 122.653C1046.81 130.057 1075.13 133.165 1104.11 127.377C1156.21 116.954 1201.9 82.7562 1233.75 39.9916L1232.14 37.9102L1232.19 37.8818Z" fill="#B8C2FA"/>
                <path d="M1221.42 24.1107C1197.43 58.3813 1165.97 87.2156 1127.97 104.848C1099.56 118.05 1068.3 123.362 1037.6 119.801C1005.69 116.106 975.335 105.157 944.286 97.6829C918.446 91.4376 891.309 88.3617 864.735 93.586C836.553 99.1228 812.406 114.211 791.748 134.308C768.076 157.344 749.65 185.025 726.883 208.885C706.103 230.643 680.767 249 651.77 257.046C624.254 264.667 596.716 260.387 573.279 244.759C550.957 229.854 534.261 206.892 525.181 181.47C514.465 151.418 514.9 118.635 510.336 87.2365C506.396 60.0791 497.674 34.5945 480.202 13.5473C447.671 -25.6532 394.225 -45.8686 343.959 -47.0585C286.163 -48.4174 231.664 -25.986 183.591 6.16303C128.246 43.1769 79.6333 91.0809 20.0518 121.304C18.4714 122.106 16.8372 122.904 15.2366 123.693L16.8456 125.741C57.1097 106.279 93.371 76.9038 128.447 49.6787C180.079 9.60521 233.729 -29.0993 298.652 -40.9294C354.561 -51.1187 415.317 -39.6088 459.408 -3.5508C482.558 15.3718 498.062 40.7165 504.749 70.248C511.723 101.027 510.794 133.195 517.688 164.011C528.675 213.058 567.341 261.315 620.445 263.404C644.976 264.375 669.309 255.455 690.21 242.417C717.799 225.198 738.488 200.196 758.841 175.094C779.959 149.072 802.683 121.851 833.094 106.847C860.256 93.4508 890.435 91.1864 919.663 95.3839C951.155 99.9008 981.118 111.153 1012.06 117.941C1041.33 124.347 1070.8 125.545 1100.25 117.555C1150.37 103.962 1193.01 68.7549 1223.01 26.1998L1221.4 24.1523L1221.42 24.1107Z" fill="#B8C2FA"/>
                <path d="M1210.68 10.3524C1187.99 44.6453 1158.32 74.1721 1121.96 93.5104C1093.97 108.407 1062.57 115.721 1031.32 113.777C1000.12 111.837 970.03 102.6 939.977 95.006C914.561 88.5935 888.255 84.0512 861.816 87.151C833.506 90.4811 808.228 103.36 786.956 122.763C762.964 144.648 744.947 171.739 724.115 196.472C704.417 219.846 681.075 240.678 652.681 252.154C625.929 262.955 597.427 262.975 572.258 249.231C548.23 236.08 529.966 213.545 519.54 188.164C507.574 159.069 507.162 126.709 502.491 95.8324C498.321 68.2304 489.463 42.3332 471.519 21.0385C438.815 -17.7144 385.388 -37.9168 335.232 -38.475C278.038 -39.119 224.746 -16.0217 177.989 16.9817C125.257 54.2176 79.5877 101.967 23.5345 134.245L25.1232 136.279C60.6361 115.768 92.7265 87.9618 124.028 62.0914C173.926 20.833 226.272 -19.1012 290.458 -31.7929C346.049 -42.7792 406.184 -31.5541 450.402 3.9074C473.719 22.6144 489.479 47.7414 496.482 77.1832C503.949 108.489 503.245 141.422 511.722 172.499C524.923 220.831 566.914 266.291 620.162 262.456C644.705 260.692 668.143 249.508 687.968 234.799C714.122 215.351 733.185 188.909 753.274 163.547C774.363 136.946 798.274 110.289 830.267 97.5518C858.171 86.436 888.378 87.0218 917.085 92.3848C946.815 97.9409 975.461 107.807 1005.28 113.04C1034.56 118.15 1063.88 117.694 1092.7 108.499C1142.26 92.6554 1183.39 55.7873 1212.31 12.4129L1210.7 10.3655L1210.68 10.3524Z" fill="#B8C2FA"/>
                <path d="M1199.98 -3.37915C1178.34 31.2425 1150.12 61.6477 1114.96 82.5385C1087.94 98.6185 1057.19 107.738 1026.09 107.638C995.347 107.529 965.334 99.8723 935.86 92.4479C909.797 85.8807 883.13 79.8059 855.865 81.603C828.689 83.3978 803.632 93.7069 782.409 111.431C733.822 152.036 709.599 216.718 651.694 246.702C626.645 259.671 598.459 263.966 572.37 253.253C546.929 242.783 527.004 221.264 514.984 196.618C501.405 168.777 499.709 137.206 495.04 106.861C490.673 78.6295 482.317 51.9968 464.048 30.0485C431.68 -8.86956 378.273 -29.5907 328.138 -29.8698C271.779 -30.207 219.552 -6.89039 174.191 26.5764C124.582 63.1557 82.3774 109.763 31.1658 144.063L32.7343 146.084C64.4733 124.745 93.2192 97.8941 121.56 72.9629C169.677 30.6367 220.863 -9.99188 284.354 -22.987C339.547 -34.2909 399.157 -22.7869 442.883 12.6799C466.634 31.9628 482.078 57.7114 488.996 87.8647C496.078 118.744 496.107 151.208 506.143 181.38C521.759 228.418 565.953 269.439 618.142 260.787C643.79 256.554 667.441 242.412 686.813 225.021C710.914 203.413 728.398 176.035 748.413 150.831C769.737 123.999 794.932 98.7365 828.281 88.8847C855.917 80.7218 884.871 83.4734 912.347 89.3646C941.716 95.6594 970.399 104.665 1000.34 108.381C1029.09 111.943 1057.77 109.592 1085.38 99.3772C1134.23 81.3 1173.76 42.8409 1201.56 -1.29011L1199.95 -3.37149L1199.98 -3.37915Z" fill="#B8C2FA"/>
                <path d="M1189.27 -17.0562C1168.65 17.9018 1141.82 49.1251 1107.91 71.4722C1081.43 88.937 1050.87 99.8046 1019.52 101.307C989.403 102.758 959.644 96.6228 930.704 89.574C904.446 83.1754 878.058 76.0433 850.695 76.3013C823.77 76.5486 798.155 84.873 776.41 101.669C725.886 140.692 703.91 206.921 648.961 241.183C626.071 255.436 598.563 263.534 572.456 256.054C545.98 248.481 524.558 228.615 510.978 204.962C495.388 177.792 492.419 146.279 487.331 115.692C482.697 87.8768 474.752 61.4522 456.962 39.5195C425.071 0.262252 371.755 -21.1364 321.614 -21.2721C266.031 -21.4306 214.754 2.06039 170.68 35.9798C123.985 71.9143 84.936 117.325 38.2345 153.137L39.7961 155.124C67.5881 133.671 92.9576 108.316 118.197 84.6747C164.815 41.0213 215.109 -0.806125 278.37 -14.2458C334.052 -26.0869 394.467 -13.7365 437.679 23.2844C460.581 42.9019 474.847 68.475 481.548 98.163C488.359 128.394 489.315 160.133 500.681 189.133C518.908 235.595 565.432 272.112 616.966 258.108C642.458 251.178 665.019 235.031 683.335 215.981C705.788 192.654 722.266 164.564 742.504 139.416C763.487 113.336 788.836 90.0611 821.799 82.1421C850.416 75.2647 879.841 79.9143 907.762 86.4493C936.533 93.1817 964.998 101.101 994.671 103.317C1023.85 105.504 1052.82 101.189 1080.05 89.3733C1127.29 68.8601 1164.57 29.263 1190.9 -14.9956L1189.28 -17.077L1189.27 -17.0562Z" fill="#B8C2FA"/>
                <path d="M1178.64 -30.7154C1159.48 3.71556 1134.73 34.9626 1103.15 58.6437C1078.2 77.3394 1048.99 90.206 1018.36 94.2413C987.97 98.2569 957.293 93.7677 927.836 87.1205C900.629 80.9907 873.779 72.6151 845.664 71.3229C818.991 70.1112 792.737 76.3985 770.41 92.2263C719.245 128.503 698.935 193.129 650.113 231.783C629.109 248.41 602.664 260.65 575.831 257.948C548.082 255.153 524.133 236.891 508.59 214.501C490.572 188.556 485.699 157.459 480.227 126.711C475.166 98.3537 467.664 71.1544 449.629 48.532C418.087 9.00014 364.864 -12.9874 314.67 -12.7739C258.657 -12.5331 207.586 12.3306 164.244 47.787C121.702 82.5826 86.2683 125.504 44.8204 161.452L46.382 163.439C71.1294 141.809 93.9018 117.363 116.774 94.6329C161.591 50.0758 210.846 7.81017 273.453 -5.72931C329.485 -17.845 390.172 -4.4032 432.628 34.1027C455.729 55.0589 468.625 81.9548 475.067 112.625C481.235 142.026 483.636 172.815 497.138 199.928C508.297 222.304 526.007 241.913 548.613 252.637C570.951 263.245 595.511 262.79 618.611 253.334C676.252 229.727 700.994 169.718 739.237 124.846C760.345 100.086 786.175 80.25 818.534 75.0946C847.568 70.4644 876.756 77.0842 904.611 83.9891C933.262 91.0859 962.222 97.7932 992.031 98.1501C1020.63 98.4617 1048.84 92.1401 1074.73 79.1572C1120.29 56.3253 1155.38 15.8067 1180.29 -28.6418L1178.67 -30.7231L1178.64 -30.7154Z" fill="#B8C2FA"/>
                <path d="M1167.99 -44.3529C1150.29 -10.5376 1127.57 20.5843 1098.34 45.2579C1073.65 66.075 1044.37 81.1942 1012.92 87.1731C983.99 92.6669 954.37 90.2796 925.912 84.6649C873.66 74.3983 817.576 50.5238 766.537 81.6615C712.237 114.782 692.847 180.832 647.828 223.252C627.922 242.008 602.031 257.351 574.466 257.743C546.969 258.12 522.2 242.512 505.382 221.742C467.265 174.637 479.664 106.291 442.792 58.4606C411.658 18.073 358.244 -4.8647 307.553 -4.2366C251.561 -3.53931 201.086 22.3601 158.744 58.9377C119.822 92.5732 87.581 133.349 50.7257 169.123L52.2873 171.11C73.2596 150.569 92.7652 128.249 112.47 107.357C155.99 61.2494 204.539 17.2279 267.327 3.00873C323.438 -9.67503 383.904 4.33147 425.863 43.518C448.339 64.5101 460.621 91.1551 467.283 121.26C473.822 150.843 477.442 181.657 492.956 208.011C505.316 229.014 523.836 246.877 546.826 255.314C570.006 263.814 594.772 260.012 616.768 248.571C672.353 219.647 693.775 157.483 733.843 112.852C756.103 88.0433 783.765 70.5767 817.07 68.5423C846.287 66.7449 874.793 74.957 902.696 81.9221C930.484 88.8424 959.115 93.8321 988.01 92.445C1017.28 91.0625 1045.82 82.4272 1071.37 67.3931C1114.17 42.2079 1146.42 1.55471 1169.59 -42.3055L1167.98 -44.3869L1167.99 -44.3529Z" fill="#B8C2FA"/>
                <path d="M1157.38 -57.9304C1140.73 -24.0863 1119.44 7.40283 1091.73 33.0961C1067.83 55.2444 1039.19 72.0462 1007.78 79.8585C979.486 86.9123 950.093 86.2654 921.766 81.5615C868.521 72.7448 811.608 44.2323 758.814 73.9946C703.337 105.289 684.542 171.931 642.708 216.538C624.501 235.954 600.91 252.495 574.461 256.413C545.911 260.65 518.991 246.86 500.443 226.058C460.176 180.862 470.865 112.496 433.758 65.4286C402.371 25.6133 349.658 2.83573 299.124 4.33298C243.189 6.01101 193.627 33.2997 152.501 71.1091C117.508 103.284 88.5456 141.38 56.2672 176.203L57.8086 178.177C75.6055 158.818 92.3756 138.38 109.439 119.136C150.862 72.4045 197.813 27.6106 259.398 12.3162C315.135 -1.52464 374.664 12.0207 416.737 50.7202C439.63 71.777 452.175 98.5042 459.437 128.792C466.515 158.341 471.346 188.88 488.42 214.418C501.848 234.521 521.482 251.191 545.146 257.292C568.662 263.356 593.023 256.665 613.647 243.833C666.453 210.981 685.333 148.081 726.104 103.876C748.922 79.1354 777.378 63.3339 810.889 63.0267C840.151 62.7628 868.249 71.9194 896.266 78.7521C924.061 85.529 952.863 89.3619 981.661 86.7018C1011.6 83.925 1040.53 73.3908 1065.89 56.6086C1106.93 29.4273 1137.16 -11.8308 1159.03 -55.8568L1157.4 -57.9512L1157.38 -57.9304Z" fill="#B8C2FA"/>
                <path d="M1146.81 -71.4949C1130.89 -37.0551 1110.51 -4.70857 1083.62 22.165C1060.78 44.9759 1033.27 62.8343 1002.63 72.2646C974.535 80.9231 944.918 81.9597 916.216 78.0152C863.899 70.833 808.926 40.2471 755.919 64.0603C697.505 90.2917 677.529 158.675 640.249 205.706C622.978 227.5 600.164 247.023 573.084 254.101C544.617 261.548 516.616 250.95 496.406 230.897C473.907 208.562 464.747 178.812 457.155 148.457C450.155 120.434 442.109 93.5004 423.623 71.0869C391.166 31.7276 338.616 9.67582 287.583 13.061C232.368 16.7401 184.689 45.6057 145.344 84.3057C114.574 114.562 89.0113 149.615 61.2601 182.627L62.7339 184.528C75.6997 168.965 88.1794 152.998 100.722 137.69C140.805 88.8508 186.485 40.2824 248.394 22.4837C303.66 6.56744 362.18 18.2484 405.212 55.7716C429.033 76.5463 442.743 103.204 450.882 133.825C458.612 162.853 464.236 192.786 481.84 217.547C495.961 237.422 516.556 253.536 540.923 257.969C564.966 262.37 589.171 253.425 608.99 239.303C660.74 202.432 677.059 136.247 720.887 92.1983C744.315 68.6499 773.272 56.1236 805.968 57.7939C835.141 59.2715 862.763 69.3877 890.921 75.8692C918.08 82.116 946.321 84.7283 974.266 80.9843C1004.39 76.9412 1033.14 64.9928 1058.12 47.1082C1098.47 18.2049 1127.44 -24.4547 1148.37 -69.3304L1146.71 -71.438L1146.81 -71.4949Z" fill="#B8C2FA"/>
                <path d="M1136.26 -85.0123C1121.32 -50.583 1102.29 -17.9558 1076.87 9.78848C1055.82 32.7259 1030.48 51.4039 1001.67 62.8489C974.071 73.8073 944.333 77.302 915.198 74.7869C885.456 72.2322 857.632 62.3391 828.847 55.4502C804.335 49.5951 778.518 46.5208 753.819 54.7613C693.043 75.0352 670.704 143.92 638.022 192.638C621.943 216.592 601.097 238.72 574.197 249.838C546.907 261.116 518.208 255.964 495.681 238.036C446.59 198.998 454.226 127.973 416.918 80.9508C385.038 40.7862 333.031 17.848 281.655 21.5416C225.613 25.5686 177.934 56.3507 139.328 96.799C112.256 125.15 89.6548 157.347 65.8109 188.442L67.2847 190.343C77.348 177.143 87.1348 163.793 97.0306 150.897C135.648 100.545 180.387 50.0973 242.454 31.3398C269.026 23.3123 297.433 20.9893 324.376 26.6822C352.033 32.5144 378.617 46.7349 399.383 65.7912C422.85 87.3386 435.497 114.486 444.154 145.06C452.233 173.548 459.841 202.409 479.163 225.307C494.991 244.048 517.635 258.188 542.778 258.613C567.3 259.018 590.519 246.66 608.844 230.535C656.8 188.37 670.526 120.148 718.819 78.1719C743.675 56.5526 773.616 49.1788 805.242 53.399C834.287 57.301 861.656 68.2556 890.323 73.7696C947.197 84.7067 1005.26 73.2638 1052.11 36.2479C1090.88 5.61024 1118.1 -37.7155 1137.86 -82.8762L1136.2 -85.0178L1136.26 -85.0123Z" fill="#B8C2FA"/>
                <path d="M1125.73 -98.4826C1111.74 -64.0562 1094 -31.2085 1070.02 -2.70853C1029.37 45.5859 971.411 74.1455 909.097 70.7971C879.425 69.2023 851.859 59.7121 823.529 52.0277C799.5 45.5127 774.103 40.7638 749.229 47.0921C687.578 62.7565 663.176 130.655 634.14 180.177C619.364 205.361 600.94 229.209 575.364 243.841C549.169 258.81 519.511 259.465 494.369 243.32C467.169 225.868 453.122 196.573 443.402 166.4C434.341 138.277 426.272 110.532 407.461 87.3766C375.502 48.0461 325.066 25.6557 274.204 30.1552C217.916 35.143 170.888 67.6756 133.478 109.52C110.011 135.756 90.2763 164.977 69.9747 193.741L71.4417 195.608C78.8392 185.072 86.1154 174.546 93.4598 164.271C130.007 113.254 172.904 61.5216 233.801 41.1493C259.301 32.6026 286.709 29.5129 313.002 33.9874C341.336 38.814 368.25 53.0127 389.494 72.0845C413.838 93.965 426.891 121.641 436.586 152.742C445.432 181.109 454.696 209.629 475.711 231.148C492.708 248.524 516.017 260.117 540.943 257.805C566.198 255.471 589.12 240.324 606.55 222.114C650.413 176.319 662.581 107.262 713.824 67.5254C740.043 47.1752 770.81 43.3753 802.011 49.4136C829.511 54.7313 855.579 65.3428 883.173 70.249C941.42 80.5725 1000.75 64.8154 1046.46 24.9696C1083.46 -7.28861 1108.88 -51.02 1127.45 -96.3355L1125.76 -98.4901L1125.73 -98.4826Z" fill="#B8C2FA"/>
                <path d="M1115.2 -111.953C1102.37 -78.162 1086.18 -45.7001 1064.23 -16.8819C1026.1 33.1647 969.502 66.6832 906.841 66.6785C876.999 66.6839 849.328 58.158 821.238 49.656C797.571 42.491 772.801 35.7897 747.657 39.376C683.837 48.4711 656.155 116.157 629.735 166.877C616.054 193.125 599.858 218.684 575.806 236.43C551.506 254.339 521.528 261.1 494.126 247.971C435.322 219.764 437.506 145.081 401.477 98.1229C370.364 57.5711 320.597 33.7866 269.143 38.4916C213.077 43.624 166.557 76.8398 130.247 119.339C109.132 144.065 91.4254 171.299 73.6515 198.459L75.1185 200.326C80.5491 191.994 85.9327 183.69 91.4043 175.562C126.413 123.457 168.33 70.5281 229.191 49.6315C254.354 40.9839 281.533 37.8045 307.537 42.3269C336.094 47.2981 362.808 62.252 383.657 82.0701C406.903 104.182 419.154 131.722 429.561 161.809C439.302 189.99 450.611 217.921 473.641 237.474C492.195 253.236 516.35 261.337 540.768 255.804C565.219 250.264 586.539 233.547 602.458 214.296C643.743 164.438 655.162 89.9979 713.259 54.4167C768.036 20.868 826.031 60.0823 881.197 67.433C939.349 75.1876 997.746 54.6381 1040.79 13.2349C1075.87 -20.5039 1099.54 -64.4581 1116.89 -109.798L1115.2 -111.987L1115.2 -111.953Z" fill="#B8C2FA"/>
                <path d="M1104.74 -125.383C1092.58 -91.0361 1077.2 -57.8712 1056.01 -28.0895C1019.31 23.4769 963.173 60.3327 899.945 62.32C870.167 63.2514 842.564 55.2421 814.709 46.2433C791.054 38.6142 766.394 30.7166 741.018 33.0605C676.468 38.968 647.329 106.151 622.63 157.633C609.356 185.297 594.156 212.741 570.13 232.451C546.924 251.513 517.096 260.937 488.951 249.449C460.213 237.723 442.198 210.837 430.337 183.05C418.035 154.209 409.072 124.734 388.741 100.415C355.995 61.1925 307.328 40.2454 256.038 47.7701C200.641 55.8734 156.35 91.5987 122.138 135.253C105.424 156.583 91.0387 179.514 76.9436 202.661L78.4175 204.562C81.0381 200.276 83.6454 196.01 86.2461 191.799C118.97 139.185 158.243 84.8339 217.129 60.944C242.213 50.7706 269.739 46.2526 296.338 49.7169C325.14 53.4612 351.738 67.7495 372.836 87.316C396.506 109.261 409.626 136.745 421.13 166.689C431.751 194.351 444.211 221.701 467.958 240.097C488.074 255.663 513.744 261.504 538.524 253.227C562.826 245.112 583.125 226.64 598.001 205.888C635.448 153.744 647.216 76.8464 708.564 44.9978C763.732 16.3637 820.94 58.2234 875.664 63.9003C933.979 69.9321 991.874 45.8416 1033.23 3.22495C1067.46 -32.0411 1089.96 -77.0442 1106.43 -123.161L1104.7 -125.376L1104.74 -125.383Z" fill="#B8C2FA"/>
                <path d="M1094.28 -138.78C1082.99 -104.488 1068.73 -71.2421 1048.86 -40.9609C1013.67 12.6211 958.164 53.4517 893.92 57.8171C863.545 59.8953 835.33 52.1671 807.069 42.5508C783.399 34.4992 758.845 25.6373 733.263 26.9632C671.831 30.1749 640.411 91.2757 618.253 141.399C605.575 170.098 592.55 199.693 570.318 222.455C549.966 243.281 521.625 258.861 492.425 252.972C426.108 239.621 419.202 158.771 384.207 112.926C368.001 91.698 346.539 73.9002 321.859 63.6296C299.715 54.4151 274.958 52.5014 251.121 56.1101C195.886 64.4958 152.096 100.959 118.997 145.248C104.473 164.696 91.9135 185.419 79.8325 206.424L81.3468 208.351C82.5462 206.268 83.7322 204.206 84.9518 202.137C116.212 148.543 154.619 93.2171 213.646 69.0645C238.454 58.9184 265.737 54.42 292.061 58.0889C321.538 62.212 348.045 77.7985 368.709 98.7943C379.612 109.855 388.91 122.468 396.432 136.142C404.212 150.308 409.915 165.513 416.464 180.295C428.193 206.729 443.773 232.536 469.448 246.963C519.328 274.98 570.035 236.164 596.017 192.268C627.4 139.285 641.411 62.6939 703.859 36.1313C731.249 24.4756 760.218 30.0095 787.149 38.5264C813.891 46.9797 839.933 57.7215 868.246 60.0864C927.736 65.0526 986.133 37.1575 1026.38 -7.56657C1059.39 -44.2417 1080.54 -89.9142 1096.02 -136.531L1094.27 -138.759L1094.28 -138.78Z" fill="#B8C2FA"/>
                <path d="M1083.87 -152.117C1073.29 -117.543 1059.96 -83.8691 1041.03 -52.9154C1007.89 1.31859 954.714 44.7244 891.235 52.8018C860.542 56.7089 831.712 50.2918 803.133 40.2332C778.815 31.6724 754.088 21.3415 727.774 21.0417C665.502 20.3455 631.938 80.6739 610.618 131.636C598.072 161.601 586.149 193.002 564.28 217.651C545.465 238.856 518.872 256.044 490.08 253.575C458.479 250.875 434.607 226.527 419.316 200.495C403.713 173.877 393.955 144.299 375.132 119.602C358.967 98.3998 337.711 80.058 312.683 70.4166C290.48 61.872 265.868 60.7595 242.349 65.0765C187.093 75.277 144.474 113.887 112.907 159.496C101.728 175.628 91.8643 192.527 82.466 209.728L84.0276 211.715C113.067 158.714 149.073 104.484 205.477 79.1892C230.053 68.1553 257.408 62.789 283.919 65.9008C312.929 69.2784 338.558 83.9999 358.85 104.548C381.817 127.806 394.173 156.652 408.577 185.618C421.056 210.71 437.501 235.309 463.024 248.191C515.068 274.457 564.877 230.575 589.11 185.338C604.77 156.068 614.475 124.052 630.195 94.8214C645.661 66.0742 668.637 37.483 700.523 27.3603C728.063 18.6337 756.09 26.2984 782.066 35.3163C809.194 44.7286 835.842 55.3327 865.034 56.38C924.805 58.5497 982.24 26.6679 1020.42 -19.6288C1051.66 -57.4604 1071.26 -103.258 1085.63 -149.91L1083.87 -152.172L1083.87 -152.117Z" fill="#B8C2FA"/>
                <path d="M1073.48 -165.44C1063.74 -130.969 1051.42 -97.2587 1033.75 -65.9335C1002.59 -10.6775 951.634 35.436 888.731 47.2503C858.313 52.9582 829.125 48.521 800.492 38.4568C776.08 29.8642 752.03 18.5278 725.938 15.7466C663.695 9.08183 626.037 64.805 604.833 116.699C592.363 147.214 582.222 179.595 562.676 206.608C545.592 230.205 519.873 251.381 490.219 253.278C458.739 255.288 432.735 234.424 415.456 210.139C397.162 184.399 386.452 154.026 367.761 128.5C351.809 106.699 330.989 87.4603 305.436 77.9205C283.348 69.6867 258.879 69.0209 235.657 73.7671C180.418 85.0994 138.693 125.174 108.443 171.814C99.8476 185.053 92.1228 198.768 84.796 212.712L86.3847 214.747C113.053 164.041 146.74 113.586 199.266 88.6046C223.417 77.1174 250.487 71.2124 276.855 73.8776C306.147 76.8186 331.506 91.5126 351.463 112.669C373.859 136.412 386.285 165.863 402.336 193.923C415.923 217.698 434.053 240.618 460.107 250.896C484.954 260.685 511.7 254.747 533.523 239.3C556.38 223.139 572.05 199.597 583.796 174.482C598.299 143.487 607.501 110.024 624.816 80.3243C641.414 51.8697 666.301 25.0798 699.567 19.0085C727.266 13.9543 754.289 23.8876 779.606 33.3922C806.596 43.5105 833.415 53.0464 862.838 52.4443C921.676 51.2063 976.888 16.6715 1012.94 -29.8864C1043.27 -69.0735 1061.76 -115.738 1075.29 -163.118L1073.49 -165.406L1073.48 -165.44Z" fill="#B8C2FA"/>
                <path d="M1063.09 -178.73C1053.97 -143.742 1042.41 -109.423 1025.45 -77.3038C995.275 -20.1758 944.484 28.88 880.598 42.5328C850.014 49.0768 820.557 45.0554 791.735 34.5731C767.47 25.7518 743.809 13.9897 717.937 10.2892C691.451 6.51527 665.922 14.217 645.224 32.0167C622.417 51.6622 607.93 78.8029 596.912 106.397C584.364 137.835 575.269 171.308 556.773 200.035C541.045 224.423 516.96 246.808 487.921 251.936C456.135 257.582 428.407 238.991 409.312 215.474C389.047 190.519 376.902 160.01 358.015 134.033C342.272 112.397 322.126 93.4484 296.474 84.7295C274.301 77.2072 249.969 77.3974 227.08 82.9197C172.068 96.1697 131.722 138.114 103.052 185.867C97.2678 195.504 91.9291 205.341 86.8468 215.315L88.4558 217.362C112.642 169.794 143.58 123.69 191.331 98.9417C214.928 86.7111 241.672 79.8866 267.963 81.6465C296.969 83.6056 322.096 97.0572 341.784 118.097C364.275 142.138 377.235 172.408 395.001 199.812C409.683 222.469 429.204 244.346 455.743 252.402C480.799 259.996 506.664 252.129 527.394 236.15C550.711 218.163 565.674 192.599 576.95 165.763C590.252 134.048 599.042 100.199 616.849 70.4941C633.564 42.6165 658.805 17.1478 691.832 12.5147C719.501 8.62064 746.095 19.3966 771.097 29.2569C798.014 39.8884 824.853 49.4374 854.429 48.2859C914.356 45.9844 969.956 8.39816 1005.2 -39.9266C1034.79 -80.4735 1052.27 -128.149 1064.98 -176.41L1063.16 -178.746L1063.09 -178.73Z" fill="#B8C2FA"/>
                <path d="M1052.77 -191.981C1043.55 -153.457 1031.6 -115.643 1012.98 -80.4818C984.879 -27.4291 938.827 18.4201 880.884 35.5482C853.349 43.6881 824.787 43.9348 797.628 35.6827C772.066 27.9369 748.456 14.939 722.701 7.80494C698.052 1.00517 672.313 1.55057 649.421 15.1825C623.887 30.3732 606.124 56.6261 594.161 83.3705C568.622 140.473 559.205 219.87 493.863 246.913C463.438 259.489 432.993 248.897 410.254 227.645C388.339 207.164 374.574 180.324 358.727 155.11C343.779 131.307 326.019 108.214 299.987 96.2989C277.732 86.0981 252.271 84.877 228.202 89.8691C171.112 101.711 129.363 145.162 100.866 194.74C96.537 202.253 92.4984 209.896 88.6352 217.624L90.251 219.705C113.383 173.281 143.755 129.08 190.567 105.61C215.227 93.2443 243.373 86.8286 270.525 90.4157C302.434 94.6426 326.864 113.984 345.346 139.521C375.851 181.595 399.98 249.499 460.145 254.755C488.337 257.218 514.57 241.567 533.381 220.949C554.93 197.331 566.391 167.223 576.641 137.479C587.479 106.022 597.628 73.7638 618.191 46.9985C638.888 20.0253 668.45 2.55284 702.405 6.2793C729.393 9.22925 753.939 22.1564 778.853 31.7528C804.036 41.4654 829.812 46.696 857.085 43.105C912.053 35.8443 961.71 -0.586 994.167 -45.4388C1025.05 -88.159 1042.28 -138.707 1054.58 -189.625L1052.73 -192.007L1052.77 -191.981Z" fill="#B8C2FA"/>
            </g>
        </g>
    </g>
</svg>
